<svg width="91" height="91" viewBox="0 0 91 91" fill="none" xmlns="http://www.w3.org/2000/svg">
<path d="M73.578 13.4936L69.7858 6.92596C69.4506 6.34555 68.8987 5.922 68.2513 5.74843C67.6039 5.57485 66.9141 5.66545 66.3335 6.00032L7.22759 40.1253C6.94018 40.2913 6.68828 40.5122 6.48628 40.7755C6.28427 41.0389 6.13613 41.3394 6.0503 41.66C5.96448 41.9806 5.94265 42.315 5.98607 42.644C6.0295 42.973 6.13731 43.2903 6.30337 43.5776L10.0955 50.1453C11.1741 49.5099 12.3679 49.0945 13.6079 48.923C14.8479 48.7515 16.1096 48.8272 17.3202 49.146C18.5308 49.4647 19.6662 50.02 20.6611 50.7799C21.6559 51.5397 22.4903 52.4891 23.1163 53.5732C23.7422 54.6573 24.1472 55.8547 24.3079 57.0961C24.4687 58.3376 24.3819 59.5986 24.0527 60.8063C23.7235 62.0141 23.1583 63.1447 22.3898 64.1328C21.6213 65.121 20.6647 65.9472 19.5752 66.5637L22.7346 72.0365C23.2375 72.9073 24.0657 73.5428 25.0371 73.803C26.0085 74.0633 27.0435 73.927 27.9144 73.4242L84.8293 40.5633C85.7001 40.0603 86.3356 39.2321 86.5958 38.2607C86.8561 37.2893 86.7198 36.2543 86.217 35.3834L83.0562 29.912C80.879 31.1689 78.2916 31.5094 75.8634 30.8586C73.4351 30.2079 71.3648 28.6191 70.1079 26.4419C68.851 24.2647 68.5105 21.6773 69.1612 19.2491C69.812 16.8208 71.4008 14.7505 73.578 13.4936Z" fill="#8FB2FF"/>
<path d="M86.7344 51.1875V42.6562C86.7344 41.902 86.4348 41.1787 85.9015 40.6454C85.3682 40.1121 84.6448 39.8125 83.8906 39.8125H7.10938C6.35517 39.8125 5.63185 40.1121 5.09854 40.6454C4.56523 41.1787 4.26563 41.902 4.26562 42.6562V51.1875C7.09391 51.1875 9.80636 52.311 11.8063 54.3109C13.8062 56.3108 14.9297 59.0233 14.9297 61.8516C14.9297 64.6798 13.8062 67.3923 11.8063 69.3922C9.80636 71.3921 7.09391 72.5156 4.26562 72.5156V79.625C4.26563 80.7563 4.71504 81.8413 5.515 82.6413C6.31496 83.4412 7.39994 83.8906 8.53125 83.8906H82.4688C83.6001 83.8906 84.685 83.4412 85.485 82.6413C86.285 81.8413 86.7344 80.7563 86.7344 79.625V72.5156C83.9061 72.5156 81.1936 71.3921 79.1937 69.3922C77.1938 67.3923 76.0703 64.6798 76.0703 61.8516C76.0703 59.0233 77.1938 56.3108 79.1937 54.3109C81.1936 52.311 83.9061 51.1875 86.7344 51.1875Z" fill="#325298"/>
<path d="M48.3438 58.2969C50.6996 58.2969 52.6094 56.3871 52.6094 54.0312C52.6094 51.6754 50.6996 49.7656 48.3438 49.7656C45.9879 49.7656 44.0781 51.6754 44.0781 54.0312C44.0781 56.3871 45.9879 58.2969 48.3438 58.2969Z" fill="white"/>
<path d="M65.4062 75.3594C67.7621 75.3594 69.6719 73.4496 69.6719 71.0938C69.6719 68.7379 67.7621 66.8281 65.4062 66.8281C63.0504 66.8281 61.1406 68.7379 61.1406 71.0938C61.1406 73.4496 63.0504 75.3594 65.4062 75.3594Z" fill="white"/>
<path d="M46.2109 73.2266C45.9315 72.947 45.7101 72.615 45.5594 72.2497C45.4088 71.8843 45.3318 71.4927 45.333 71.0975C45.3342 70.7023 45.4135 70.3112 45.5664 69.9467C45.7192 69.5822 45.9426 69.2516 46.2237 68.9737L63.3957 52.0207C63.9321 51.5027 64.6504 51.2161 65.396 51.2226C66.1416 51.229 66.8549 51.5281 67.3821 52.0554C67.9094 52.5826 68.2085 53.2959 68.2149 54.0415C68.2214 54.7871 67.9348 55.5054 67.4168 56.0418L50.4638 73.2138C50.1859 73.4949 49.8553 73.7183 49.4908 73.8711C49.1263 74.024 48.7352 74.1033 48.34 74.1045C47.9448 74.1057 47.5532 74.0287 47.1878 73.8781C46.8225 73.7274 46.4905 73.506 46.2109 73.2266ZM32.7031 45.5C33.0802 45.5 33.4419 45.3502 33.7085 45.0835C33.9752 44.8169 34.125 44.4552 34.125 44.0781V39.8125H31.2812V44.0781C31.2812 44.4552 31.4311 44.8169 31.6977 45.0835C31.9644 45.3502 32.326 45.5 32.7031 45.5ZM32.7031 59.7188C33.0802 59.7188 33.4419 59.5689 33.7085 59.3023C33.9752 59.0356 34.125 58.674 34.125 58.2969V51.1875C34.125 50.8104 33.9752 50.4487 33.7085 50.1821C33.4419 49.9154 33.0802 49.7656 32.7031 49.7656C32.326 49.7656 31.9644 49.9154 31.6977 50.1821C31.4311 50.4487 31.2812 50.8104 31.2812 51.1875V58.2969C31.2812 58.674 31.4311 59.0356 31.6977 59.3023C31.9644 59.5689 32.326 59.7188 32.7031 59.7188ZM32.7031 73.9375C33.0802 73.9375 33.4419 73.7877 33.7085 73.521C33.9752 73.2544 34.125 72.8927 34.125 72.5156V65.4062C34.125 65.0291 33.9752 64.6675 33.7085 64.4008C33.4419 64.1342 33.0802 63.9844 32.7031 63.9844C32.326 63.9844 31.9644 64.1342 31.6977 64.4008C31.4311 64.6675 31.2812 65.0291 31.2812 65.4062V72.5156C31.2812 72.8927 31.4311 73.2544 31.6977 73.521C31.9644 73.7877 32.326 73.9375 32.7031 73.9375ZM32.7031 78.2031C32.326 78.2031 31.9644 78.3529 31.6977 78.6196C31.4311 78.8862 31.2812 79.2479 31.2812 79.625V83.8906H34.125V79.625C34.125 79.2479 33.9752 78.8862 33.7085 78.6196C33.4419 78.3529 33.0802 78.2031 32.7031 78.2031Z" fill="white"/>
</svg>
