<svg width="91" height="91" viewBox="0 0 91 91" fill="none" xmlns="http://www.w3.org/2000/svg">
<path d="M34.3027 31.2812H0V33.0586H34.3027V31.2812Z" fill="#FED700"/>
<path d="M47.6328 21.8613H20.084V23.6387H47.6328V21.8613Z" fill="#FED700"/>
<path d="M34.6582 41.5898H10.1309V43.3672H34.6582V41.5898Z" fill="#FED700"/>
<path d="M42.834 64.5176H19.5508V66.2949H42.834V64.5176Z" fill="#FED700"/>
<path d="M30.3926 29.8594L60.252 14.2188L90.1113 29.8594V61.1406L60.252 76.7812L30.3926 61.1406V29.8594Z" fill="#0D62A3"/>
<path d="M90.1113 29.8594V61.1406L60.252 76.7812V45.5L90.1113 29.8594Z" fill="#C7A800"/>
<path d="M60.252 45.5V76.7812L30.3926 61.1406V29.8594L60.252 45.5Z" fill="#FED700"/>
<path d="M41.0742 24.2607L71.6268 39.5281V51.7207L80.158 47.5439V35.1914L49.6055 19.7818L41.0742 24.2607Z" fill="#EBEADF"/>
<path d="M71.627 51.7207L80.1582 47.544V35.1914L80.0338 35.1381L71.627 39.5459V51.7207Z" fill="#C4C1AB"/>
<path d="M56.4628 66.0294L44.918 60.3459L44.133 61.9405L55.6778 67.624L56.4628 66.0294Z" fill="#EBEADF"/>
<path d="M56.4664 59.727L50.6958 56.8417L49.9009 58.4314L55.6716 61.3167L56.4664 59.727Z" fill="#EBEADF"/>
<path d="M30.3926 31.2812H0V33.0586H30.3926V31.2812Z" fill="#060D1A"/>
<path d="M43.9004 21.8613H20.084V23.6387H43.9004V21.8613Z" fill="#060D1A"/>
<path d="M30.5703 41.5898H10.1309V43.3672H30.5703V41.5898Z" fill="#060D1A"/>
<path d="M61.1406 45.5H59.3633V76.7812H61.1406V45.5Z" fill="#060D1A"/>
<path d="M60.2521 46.3887C60.1099 46.3887 59.9677 46.3531 59.8433 46.282L29.9839 30.6414L30.8015 29.0596L60.2521 44.5047L89.7026 29.0773L90.5202 30.6592L60.6608 46.2998C60.5364 46.3531 60.3942 46.3887 60.2521 46.3887Z" fill="#060D1A"/>
<path d="M71.6271 52.6094C71.4672 52.6094 71.3072 52.556 71.165 52.4672C70.8984 52.3072 70.7385 52.0228 70.7385 51.7207V40.0791L40.6836 25.0605L41.4834 23.4787L72.0359 38.7461C72.3381 38.8883 72.5336 39.2082 72.5336 39.5459V50.2988L79.2875 46.993V35.7424L52.8051 22.3945L53.6049 20.8127L80.585 34.4094C80.8871 34.5693 81.0648 34.8715 81.0648 35.2092V47.5617C81.0648 47.8994 80.8693 48.2193 80.5672 48.3615L72.0359 52.5383C71.8937 52.5738 71.7693 52.6094 71.6271 52.6094Z" fill="#060D1A"/>
<path d="M56.4628 66.0294L44.918 60.3459L44.133 61.9405L55.6778 67.624L56.4628 66.0294Z" fill="#060D1A"/>
<path d="M56.4664 59.727L50.6958 56.8417L49.9009 58.4314L55.6716 61.3167L56.4664 59.727Z" fill="#060D1A"/>
<path d="M38.7461 64.5176H19.5508V66.2949H38.7461V64.5176Z" fill="#060D1A"/>
<path d="M60.252 77.6699C60.1098 77.6699 59.9676 77.6344 59.8432 77.5633L51.0453 72.96L51.8629 71.3781L60.252 75.7682L89.2227 60.6074V30.3926L60.252 15.2141L31.2812 30.3926V60.6074L48.557 69.6541L47.7395 71.2359L29.9838 61.9404C29.6994 61.7805 29.5039 61.4783 29.5039 61.1584V29.8594C29.5039 29.5217 29.6816 29.2195 29.9838 29.0773L59.8432 13.4367C60.1098 13.2945 60.4119 13.2945 60.6607 13.4367L90.5201 29.0773C90.8045 29.2373 91 29.5395 91 29.8594V61.1406C91 61.4783 90.8223 61.7805 90.5201 61.9227L60.6607 77.5633C60.5363 77.6344 60.3941 77.6699 60.252 77.6699Z" fill="#060D1A"/>
</svg>
