<svg width="91" height="91" viewBox="0 0 91 91" fill="none" xmlns="http://www.w3.org/2000/svg">
<g clip-path="url(#clip0_192_119)">
<path d="M56.875 8.53124V82.4687C56.875 84.7314 55.9762 86.9013 54.3763 88.5012C52.7763 90.1012 50.6064 91 48.3438 91H8.53125C6.26862 91 4.09866 90.1012 2.49875 88.5012C0.898825 86.9013 0 84.7314 0 82.4687L0 8.53124C0 6.26861 0.898825 4.09865 2.49875 2.49874C4.09866 0.898816 6.26862 -9.32127e-06 8.53125 -9.32127e-06C51.6425 -9.32127e-06 49.3106 -0.241728 51.3866 0.568741C52.9997 1.18461 54.388 2.27548 55.368 3.69719C56.348 5.1189 56.8734 6.80451 56.875 8.53124Z" fill="black"/>
<path d="M54.0313 8.53126V79.625C54.0313 81.1334 53.432 82.5801 52.3654 83.6467C51.2988 84.7133 49.8522 85.3125 48.3438 85.3125H8.53125C7.02283 85.3125 5.57619 84.7133 4.50958 83.6467C3.44297 82.5801 2.84375 81.1334 2.84375 79.625V8.53126C2.84375 7.02284 3.44297 5.5762 4.50958 4.50959C5.57619 3.44298 7.02283 2.84376 8.53125 2.84376H16.0388C16.3488 2.82758 16.6557 2.91333 16.9124 3.08792C17.1692 3.26251 17.3617 3.51634 17.4606 3.81064C17.8445 4.99079 18.2569 7.10939 20.603 7.10939H36.3431C36.9411 7.10993 37.5239 6.92199 38.0089 6.57229C38.4939 6.22258 38.8563 5.7289 39.0447 5.16142L39.4855 3.81064C39.5809 3.52822 39.7626 3.28293 40.005 3.10943C40.2474 2.93593 40.5382 2.84299 40.8363 2.84376H49.0405C50.4251 3.01463 51.6987 3.68848 52.6189 4.73715C53.5391 5.78582 54.0418 7.13614 54.0313 8.53126Z" fill="white"/>
<path d="M54.0313 8.53126V44.0781H2.84375V8.53126C2.84375 7.02284 3.44297 5.5762 4.50958 4.50959C5.57619 3.44298 7.02283 2.84376 8.53125 2.84376H16.0388C16.3488 2.82758 16.6557 2.91333 16.9124 3.08792C17.1692 3.26251 17.3617 3.51633 17.4606 3.81064C17.8445 4.99079 18.2569 7.10938 20.603 7.10938H36.3431C36.9411 7.10993 37.5239 6.92199 38.0089 6.57229C38.4939 6.22258 38.8563 5.7289 39.0447 5.16142L39.4855 3.81064C39.5809 3.52822 39.7626 3.28293 40.005 3.10943C40.2474 2.93593 40.5382 2.84299 40.8363 2.84376H49.0405C50.4251 3.01463 51.6987 3.68848 52.6189 4.73715C53.5391 5.78582 54.0418 7.13614 54.0313 8.53126Z" fill="#5D667A"/>
<path d="M38.3906 22.75C38.3906 24.7185 37.8069 26.6429 36.7132 28.2797C35.6196 29.9165 34.0651 31.1922 32.2464 31.9455C30.4277 32.6988 28.4265 32.8959 26.4957 32.5119C24.565 32.1278 22.7916 31.1799 21.3996 29.7879C20.0076 28.396 19.0597 26.6225 18.6756 24.6918C18.2916 22.761 18.4887 20.7598 19.242 18.9411C19.9953 17.1224 21.2711 15.5679 22.9078 14.4743C24.5446 13.3806 26.469 12.7969 28.4375 12.7969C31.0772 12.7969 33.6089 13.8455 35.4754 15.7121C37.342 17.5787 38.3906 20.1103 38.3906 22.75Z" fill="#F3F3F3"/>
<path d="M37.1396 27.5986C36.2778 29.1508 35.0164 30.4443 33.4864 31.3449C31.9563 32.2454 30.2132 32.7203 28.4377 32.7203C26.6623 32.7203 24.9192 32.2454 23.3891 31.3449C21.859 30.4443 20.5977 29.1508 19.7358 27.5986C22.1022 25.404 25.2104 24.1845 28.4377 24.1845C31.6651 24.1845 34.7733 25.404 37.1396 27.5986Z" fill="#D9D9D9"/>
<path d="M28.4375 24.1719C30.7933 24.1719 32.7031 22.2621 32.7031 19.9062C32.7031 17.5504 30.7933 15.6406 28.4375 15.6406C26.0817 15.6406 24.1719 17.5504 24.1719 19.9062C24.1719 22.2621 26.0817 24.1719 28.4375 24.1719Z" fill="#D9D9D9"/>
<path d="M44.0781 82.4688H12.7969C12.4198 82.4688 12.0581 82.3189 11.7915 82.0523C11.5248 81.7856 11.375 81.424 11.375 81.0469C11.375 80.6698 11.5248 80.3081 11.7915 80.0415C12.0581 79.7748 12.4198 79.625 12.7969 79.625H44.0781C44.4552 79.625 44.8169 79.7748 45.0835 80.0415C45.3502 80.3081 45.5 80.6698 45.5 81.0469C45.5 81.424 45.3502 81.7856 45.0835 82.0523C44.8169 82.3189 44.4552 82.4688 44.0781 82.4688Z" fill="#D9D9D9"/>
<path d="M42.6562 24.1719H48.3438V66.8281H42.6562V24.1719Z" fill="#FFAC00"/>
<path d="M54.0312 24.1719H56.875V66.8281H54.0312V24.1719Z" fill="black"/>
<path d="M48.3438 44.0781H54.0312V66.8281H48.3438V44.0781Z" fill="#F3F3F3"/>
<path d="M48.3438 24.1719H54.0312V44.0781H48.3438V24.1719Z" fill="black"/>
<path d="M91 29.8594V61.1406C91 61.8948 90.7004 62.6182 90.1671 63.1515C89.6338 63.6848 88.9105 63.9844 88.1562 63.9844H48.3438V27.0156H88.1562C88.9105 27.0156 89.6338 27.3152 90.1671 27.8485C90.7004 28.3818 91 29.1052 91 29.8594Z" fill="#5D667A"/>
<path d="M42.6562 27.0156H48.3438V63.9844H42.6562V27.0156ZM88.1562 34.125V56.875C87.0249 56.875 85.94 57.3244 85.14 58.1244C84.34 58.9243 83.8906 60.0093 83.8906 61.1406H48.3438V29.8594H83.8906C83.8906 30.9907 84.34 32.0757 85.14 32.8756C85.94 33.6756 87.0249 34.125 88.1562 34.125Z" fill="#8CC0B4"/>
<path d="M42.6562 29.8594H48.3438V61.1406H42.6562V29.8594Z" fill="#8CC0B4"/>
<path d="M62.5625 56.875C68.8447 56.875 73.9375 51.7822 73.9375 45.5C73.9375 39.2178 68.8447 34.125 62.5625 34.125C56.2803 34.125 51.1875 39.2178 51.1875 45.5C51.1875 51.7822 56.2803 56.875 62.5625 56.875Z" fill="#FDFDFD"/>
<path d="M83.8906 46.9219H78.2031C77.826 46.9219 77.4644 46.7721 77.1977 46.5054C76.9311 46.2388 76.7812 45.8771 76.7812 45.5C76.7812 45.1229 76.9311 44.7612 77.1977 44.4946C77.4644 44.2279 77.826 44.0781 78.2031 44.0781H83.8906C84.2677 44.0781 84.6294 44.2279 84.896 44.4946C85.1627 44.7612 85.3125 45.1229 85.3125 45.5C85.3125 45.8771 85.1627 46.2388 84.896 46.5054C84.6294 46.7721 84.2677 46.9219 83.8906 46.9219Z" fill="#FDFDFD"/>
<path d="M46.9219 46.9219H42.6562V44.0781H46.9219C47.299 44.0781 47.6606 44.2279 47.9273 44.4946C48.1939 44.7612 48.3438 45.1229 48.3438 45.5C48.3438 45.8771 48.1939 46.2388 47.9273 46.5054C47.6606 46.7721 47.299 46.9219 46.9219 46.9219Z" fill="#D9D9D9"/>
<path d="M63.2736 44.0781H61.8517C61.6632 44.0781 61.4823 44.0032 61.349 43.8699C61.2157 43.7366 61.1408 43.5557 61.1408 43.3672C61.1408 43.1786 61.2157 42.9978 61.349 42.8645C61.4823 42.7312 61.6632 42.6562 61.8517 42.6562H65.4064C65.7835 42.6562 66.1452 42.5064 66.4118 42.2398C66.6785 41.9731 66.8283 41.6115 66.8283 41.2344C66.8283 40.8573 66.6785 40.4956 66.4118 40.229C66.1452 39.9623 65.7835 39.8125 65.4064 39.8125H63.9845V38.3906C63.9845 38.0135 63.8347 37.6519 63.5681 37.3852C63.3014 37.1186 62.9398 36.9688 62.5627 36.9688C62.1856 36.9688 61.8239 37.1186 61.5572 37.3852C61.2906 37.6519 61.1408 38.0135 61.1408 38.3906V39.8836C60.2769 40.059 59.509 40.5492 58.9862 41.2589C58.4633 41.9687 58.2229 42.8474 58.3115 43.7244C58.4001 44.6015 58.8114 45.4144 59.4656 46.0052C60.1198 46.5961 60.9702 46.9228 61.8517 46.9219H63.2736C63.4622 46.9219 63.643 46.9968 63.7763 47.1301C63.9096 47.2634 63.9845 47.4443 63.9845 47.6328C63.9845 47.8214 63.9096 48.0022 63.7763 48.1355C63.643 48.2688 63.4622 48.3438 63.2736 48.3438H59.7189C59.3418 48.3438 58.9801 48.4936 58.7135 48.7602C58.4468 49.0269 58.297 49.3885 58.297 49.7656C58.297 50.1427 58.4468 50.5044 58.7135 50.771C58.9801 51.0377 59.3418 51.1875 59.7189 51.1875H61.1408V52.6094C61.1408 52.9865 61.2906 53.3481 61.5572 53.6148C61.8239 53.8814 62.1856 54.0312 62.5627 54.0312C62.9398 54.0312 63.3014 53.8814 63.5681 53.6148C63.8347 53.3481 63.9845 52.9865 63.9845 52.6094V51.1875C64.9273 51.0932 65.794 50.6283 66.394 49.895C66.9939 49.1617 67.278 48.2201 67.1838 47.2773C67.0895 46.3346 66.6246 45.4679 65.8913 44.8679C65.158 44.2679 64.2164 43.9838 63.2736 44.0781Z" fill="#FFAC00"/>
<path d="M19.9062 35.5469H36.9688V38.3906H19.9062V35.5469Z" fill="#F3F3F3"/>
<path d="M7.10938 48.3438H32.7031V51.1875H7.10938V48.3438ZM7.10938 54.0312H35.5469V56.875H7.10938V54.0312Z" fill="#D9D9D9"/>
<path d="M28.4375 59.7188H9.95312C8.38257 59.7188 7.10938 60.9919 7.10938 62.5625V73.9375C7.10938 75.5081 8.38257 76.7812 9.95312 76.7812H28.4375C30.0081 76.7812 31.2812 75.5081 31.2812 73.9375V62.5625C31.2812 60.9919 30.0081 59.7188 28.4375 59.7188Z" fill="#FFAC00"/>
<path d="M7.10938 63.9844V66.8281C9.74911 66.8281 12.2807 67.8768 14.1473 69.7433C16.0139 71.6099 17.0625 74.1415 17.0625 76.7812H19.9062C19.9062 73.3873 18.558 70.1324 16.1581 67.7325C13.7583 65.3326 10.5033 63.9844 7.10938 63.9844Z" fill="#D8890B"/>
</g>
<defs>
<clipPath id="clip0_192_119">
<rect width="91" height="91" fill="white"/>
</clipPath>
</defs>
</svg>
