<svg width="91" height="91" viewBox="0 0 91 91" fill="none" xmlns="http://www.w3.org/2000/svg">
<g clip-path="url(#clip0_192_74)">
<path d="M42.1908 90.1727C65.0353 90.1727 83.5544 71.6536 83.5544 48.8091C83.5544 25.9646 65.0353 7.44547 42.1908 7.44547C19.3463 7.44547 0.827148 25.9646 0.827148 48.8091C0.827148 71.6536 19.3463 90.1727 42.1908 90.1727Z" fill="#E7EFFF"/>
<path d="M65.3543 41.3636C75.4059 41.3636 83.5543 33.2152 83.5543 23.1636C83.5543 13.112 75.4059 4.96362 65.3543 4.96362C55.3027 4.96362 47.1543 13.112 47.1543 23.1636C47.1543 33.2152 55.3027 41.3636 65.3543 41.3636Z" fill="#00C99F"/>
<path d="M65.3544 17.3727C66.725 17.3727 67.8362 16.2616 67.8362 14.8909C67.8362 13.5202 66.725 12.4091 65.3544 12.4091C63.9837 12.4091 62.8726 13.5202 62.8726 14.8909C62.8726 16.2616 63.9837 17.3727 65.3544 17.3727Z" fill="white"/>
<path d="M60.3906 19.8546V21.5091C60.3906 21.7285 60.4778 21.9389 60.6329 22.0941C60.7881 22.2492 60.9985 22.3364 61.2179 22.3364H62.8724V33.0909C62.8724 33.3103 62.9596 33.5207 63.1147 33.6759C63.2699 33.831 63.4803 33.9182 63.6997 33.9182H67.0088C67.2282 33.9182 67.4386 33.831 67.5938 33.6759C67.7489 33.5207 67.8361 33.3103 67.8361 33.0909V19.8546C67.8361 19.6351 67.7489 19.4247 67.5938 19.2696C67.4386 19.1144 67.2282 19.0273 67.0088 19.0273H61.2179C60.9985 19.0273 60.7881 19.1144 60.6329 19.2696C60.4778 19.4247 60.3906 19.6351 60.3906 19.8546Z" fill="white"/>
<path d="M59.5636 35.5727V86.3507C57.9522 87.0992 56.2942 87.743 54.6 88.2783C30.1872 80.2454 14.8909 79.8732 14.8909 79.8732C13.0892 78.2882 11.4284 76.5499 9.92725 74.6779V35.5727C9.92725 32.9398 10.9732 30.4148 12.8349 28.5531C14.6966 26.6914 17.2216 25.6454 19.8545 25.6454H49.6363C52.2692 25.6454 54.7943 26.6914 56.656 28.5531C58.5177 30.4148 59.5636 32.9398 59.5636 35.5727Z" fill="#4E6AFF"/>
<path d="M8.27259 43.0182H9.92713V48.8091H8.27259C8.05318 48.8091 7.84276 48.7219 7.68762 48.5668C7.53247 48.4117 7.44531 48.2012 7.44531 47.9818V43.8455C7.44531 43.6261 7.53247 43.4156 7.68762 43.2605C7.84276 43.1053 8.05318 43.0182 8.27259 43.0182ZM8.27259 52.1182H9.92713V57.9091H8.27259C8.05318 57.9091 7.84276 57.8219 7.68762 57.6668C7.53247 57.5117 7.44531 57.3012 7.44531 57.0818V52.9455C7.44531 52.7261 7.53247 52.5156 7.68762 52.3605C7.84276 52.2053 8.05318 52.1182 8.27259 52.1182Z" fill="#323FD4"/>
<path d="M54.5997 35.5727V88.2783C47.8165 90.408 40.5989 90.7535 33.6433 89.2812C26.6878 87.8089 20.2291 84.5687 14.8906 79.8732V35.5727C14.8906 34.2563 15.4136 32.9938 16.3444 32.0629C17.2753 31.1321 18.5378 30.6091 19.8543 30.6091H49.6361C50.9525 30.6091 52.215 31.1321 53.1459 32.0629C54.0768 32.9938 54.5997 34.2563 54.5997 35.5727Z" fill="white"/>
<path d="M31.4363 59.5636H24.8182C24.3793 59.5636 23.9585 59.3893 23.6482 59.079C23.3379 58.7687 23.1636 58.3479 23.1636 57.9091C23.1659 56.6053 23.5621 55.3327 24.3002 54.258C25.0383 53.1833 26.0839 52.3567 27.3 51.8865L28.6071 51.3984C28.9943 51.2566 29.3195 50.9835 29.5261 50.6266C29.7328 50.2697 29.8076 49.8517 29.7378 49.4453C29.6679 49.0388 29.4577 48.6698 29.1438 48.4024C28.8298 48.135 28.4321 47.9862 28.0197 47.9818C27.8072 47.9813 27.5968 48.0246 27.4018 48.109C27.2067 48.1933 27.0311 48.317 26.886 48.4723C26.7408 48.6275 26.6292 48.811 26.5581 49.0113C26.487 49.2116 26.4579 49.4243 26.4727 49.6364C26.4727 50.0752 26.2984 50.496 25.9881 50.8063C25.6778 51.1166 25.257 51.2909 24.8182 51.2909C24.3793 51.2909 23.9585 51.1166 23.6482 50.8063C23.3379 50.496 23.1636 50.0752 23.1636 49.6364C23.1504 48.9899 23.2662 48.3474 23.5042 47.7463C23.7423 47.1451 24.0977 46.5975 24.5499 46.1353C25.002 45.6732 25.5417 45.3058 26.1375 45.0547C26.7333 44.8035 27.3732 44.6737 28.0197 44.6727C29.2043 44.6822 30.3484 45.1055 31.2539 45.8694C32.1594 46.6332 32.7695 47.6895 32.9786 48.8556C33.1876 50.0217 32.9826 51.2241 32.3988 52.255C31.815 53.2858 30.8893 54.0802 29.7818 54.5007C28.5326 54.9723 27.6143 55.1708 26.936 56.2545H31.4363C31.8752 56.2545 32.296 56.4289 32.6063 56.7391C32.9166 57.0494 33.0909 57.4703 33.0909 57.9091C33.0909 58.3479 32.9166 58.7687 32.6063 59.079C32.296 59.3893 31.8752 59.5636 31.4363 59.5636ZM44.6727 48.8091C44.2339 48.8091 43.813 48.9834 43.5028 49.2937C43.1925 49.604 43.0182 50.0248 43.0182 50.4636V52.1182H40.3461L42.1082 46.8484C42.1766 46.642 42.2037 46.4242 42.188 46.2073C42.1722 45.9904 42.1139 45.7787 42.0163 45.5844C41.9188 45.39 41.7839 45.2168 41.6194 45.0745C41.4548 44.9323 41.2639 44.8239 41.0575 44.7554C40.8511 44.687 40.6332 44.6599 40.4163 44.6756C40.1994 44.6914 39.9878 44.7497 39.7934 44.8473C39.5991 44.9449 39.4258 45.0797 39.2836 45.2442C39.1414 45.4088 39.033 45.5997 38.9645 45.8061L36.4827 53.2515C36.4001 53.5003 36.3779 53.7651 36.4177 54.0242C36.4575 54.2833 36.5584 54.5292 36.7118 54.7416C36.8653 54.9541 37.0671 55.1271 37.3006 55.2463C37.534 55.3655 37.7924 55.4275 38.0545 55.4273H43.0182V57.9091C43.0182 58.3479 43.1925 58.7687 43.5028 59.079C43.813 59.3893 44.2339 59.5636 44.6727 59.5636C45.1115 59.5636 45.5324 59.3893 45.8426 59.079C46.1529 58.7687 46.3272 58.3479 46.3272 57.9091V50.4636C46.3272 50.0248 46.1529 49.604 45.8426 49.2937C45.5324 48.9834 45.1115 48.8091 44.6727 48.8091Z" fill="#A5BCED"/>
<path d="M42.0916 36.4H27.3992C26.6646 36.4013 25.9505 36.1581 25.3693 35.7087C24.7882 35.2594 24.373 34.6294 24.1894 33.9182L23.1636 29.7818H46.3272L45.3014 33.9182C45.1177 34.6294 44.7026 35.2594 44.1215 35.7087C43.5403 36.1581 42.8262 36.4013 42.0916 36.4Z" fill="#4E6AFF"/>
<path d="M34.7451 33.9182H29.7815C29.3427 33.9182 28.9218 33.7439 28.6116 33.4336C28.3013 33.1233 28.127 32.7025 28.127 32.2636C28.127 31.8248 28.3013 31.404 28.6116 31.0937C28.9218 30.7834 29.3427 30.6091 29.7815 30.6091H34.7451C35.1839 30.6091 35.6048 30.7834 35.9151 31.0937C36.2254 31.404 36.3997 31.8248 36.3997 32.2636C36.3997 32.7025 36.2254 33.1233 35.9151 33.4336C35.6048 33.7439 35.1839 33.9182 34.7451 33.9182Z" fill="#323FD4"/>
<path d="M40.5364 33.9182C41.4502 33.9182 42.1909 33.1774 42.1909 32.2636C42.1909 31.3499 41.4502 30.6091 40.5364 30.6091C39.6226 30.6091 38.8818 31.3499 38.8818 32.2636C38.8818 33.1774 39.6226 33.9182 40.5364 33.9182Z" fill="#323FD4"/>
<path d="M8.27283 5.79091C9.6435 5.79091 10.7547 4.67976 10.7547 3.30909C10.7547 1.93842 9.6435 0.827271 8.27283 0.827271C6.90216 0.827271 5.79102 1.93842 5.79102 3.30909C5.79102 4.67976 6.90216 5.79091 8.27283 5.79091Z" fill="#00C99F"/>
<path d="M87.6908 7.44545C89.0615 7.44545 90.1726 6.3343 90.1726 4.96363C90.1726 3.59296 89.0615 2.48181 87.6908 2.48181C86.3201 2.48181 85.209 3.59296 85.209 4.96363C85.209 6.3343 86.3201 7.44545 87.6908 7.44545Z" fill="#FF4D69"/>
<path d="M83.5546 88.5182C84.9252 88.5182 86.0364 87.407 86.0364 86.0364C86.0364 84.6657 84.9252 83.5545 83.5546 83.5545C82.1839 83.5545 81.0728 84.6657 81.0728 86.0364C81.0728 87.407 82.1839 88.5182 83.5546 88.5182Z" fill="#00C99F"/>
<path d="M3.30897 85.2091C4.67964 85.2091 5.79078 84.0979 5.79078 82.7273C5.79078 81.3566 4.67964 80.2455 3.30897 80.2455C1.9383 80.2455 0.827148 81.3566 0.827148 82.7273C0.827148 84.0979 1.9383 85.2091 3.30897 85.2091Z" fill="#FFA100"/>
<path d="M34.7451 84.3818C40.2278 84.3818 44.6724 79.9372 44.6724 74.4546C44.6724 68.9719 40.2278 64.5273 34.7451 64.5273C29.2625 64.5273 24.8179 68.9719 24.8179 74.4546C24.8179 79.9372 29.2625 84.3818 34.7451 84.3818Z" fill="#00C99F"/>
<path d="M62.2437 78.7894C62.0801 78.7888 61.9204 78.7396 61.7847 78.6481C61.6491 78.5566 61.5436 78.427 61.4816 78.2756C61.4196 78.1242 61.4039 77.9578 61.4365 77.7974C61.4691 77.6371 61.5485 77.49 61.6646 77.3748C62.4376 76.5995 62.8716 75.5493 62.8716 74.4545C62.8716 73.3598 62.4376 72.3096 61.6646 71.5343C61.5279 71.377 61.4556 71.1739 61.4621 70.9656C61.4686 70.7573 61.5536 70.5591 61.6999 70.4107C61.8462 70.2623 62.0431 70.1746 62.2513 70.1651C62.4595 70.1556 62.6636 70.2251 62.8228 70.3595C63.3606 70.8973 63.7872 71.5357 64.0783 72.2383C64.3693 72.9409 64.5191 73.694 64.5191 74.4545C64.5191 75.2151 64.3693 75.9681 64.0783 76.6708C63.7872 77.3734 63.3606 78.0118 62.8228 78.5495C62.6687 78.7024 62.4608 78.7885 62.2437 78.7894Z" fill="#FFA100"/>
<path d="M64.585 81.1307C64.4207 81.1316 64.2598 81.0836 64.1229 80.9928C63.986 80.9019 63.8792 80.7724 63.8162 80.6206C63.7532 80.4689 63.7368 80.3018 63.7691 80.1407C63.8014 79.9796 63.881 79.8317 63.9977 79.716C65.3919 78.32 66.1751 76.4276 66.1751 74.4546C66.1751 72.4815 65.3919 70.5891 63.9977 69.1931C63.9205 69.116 63.8593 69.0244 63.8176 68.9236C63.7758 68.8228 63.7544 68.7148 63.7544 68.6057C63.7544 68.4967 63.7758 68.3886 63.8176 68.2879C63.8593 68.1871 63.9205 68.0955 63.9977 68.0184C64.0748 67.9412 64.1664 67.8801 64.2671 67.8383C64.3679 67.7966 64.4759 67.7751 64.585 67.7751C64.6941 67.7751 64.8021 67.7966 64.9029 67.8383C65.0037 67.8801 65.0952 67.9412 65.1724 68.0184C66.0178 68.8634 66.6885 69.8668 67.1461 70.9712C67.6037 72.0755 67.8392 73.2592 67.8392 74.4546C67.8392 75.6499 67.6037 76.8336 67.1461 77.938C66.6885 79.0423 66.0178 80.0457 65.1724 80.8907C65.0951 80.9674 65.0034 81.0281 64.9026 81.0692C64.8018 81.1104 64.6939 81.1313 64.585 81.1307Z" fill="#FFA100"/>
<path d="M33.4712 71.0462L31.7174 69.2924C31.5624 69.1383 31.3527 69.0518 31.1341 69.0518C30.9156 69.0518 30.7059 69.1383 30.5509 69.2924C29.7755 70.068 29.3398 71.1199 29.3398 72.2168C29.3398 73.3136 29.7755 74.3655 30.5509 75.1412L34.0585 78.6488C34.8342 79.4243 35.8861 79.8599 36.983 79.8599C38.0798 79.8599 39.1317 79.4243 39.9074 78.6488C40.0615 78.4938 40.1479 78.2841 40.1479 78.0656C40.1479 77.847 40.0615 77.6374 39.9074 77.4824L38.1536 75.7285C37.9986 75.5745 37.7889 75.488 37.5703 75.488C37.3518 75.488 37.1421 75.5745 36.9871 75.7285L35.8124 76.9364L32.3047 73.4287L33.4712 72.254C33.5538 72.1766 33.6197 72.0831 33.6648 71.9792C33.7098 71.8753 33.7331 71.7633 33.7331 71.6501C33.7331 71.5369 33.7098 71.4248 33.6648 71.321C33.6197 71.2171 33.5538 71.1236 33.4712 71.0462Z" fill="white"/>
</g>
<defs>
<clipPath id="clip0_192_74">
<rect width="91" height="91" fill="white"/>
</clipPath>
</defs>
</svg>
